<svg xmlns="http://www.w3.org/2000/svg" width="1024" height="1024" viewBox="-4 -4 1024 1024"><desc>Teacup Without Handle Streamline Emoji: https://streamlinehq.com</desc><path fill="#debb7e" stroke="#45413c" stroke-linecap="round" stroke-linejoin="round" stroke-width="8" d="M903.635 758.129C903.635 864.51 726.478 950.89 508 950.89s-395.635-86.38-395.635-192.762V712.85h791.27Z"/><path fill="#f0d5a8" d="M112.365 707.576c0 155.325 329.697 252.404 593.452 174.742 122.41-36.045 197.818-102.657 197.818-174.742 0-155.325-329.697-252.404-593.452-174.741-122.41 36.042-197.818 102.654-197.818 174.741Z"/><path fill="#f7e5c6" d="M508 577.456c194.52 0 355.852 71.654 389.041 165.947a105.496 105.496 0 0 0 6.594-35.827c0-111.438-177.157-201.773-395.635-201.773s-395.635 90.335-395.635 201.773a105.496 105.496 0 0 0 6.594 35.827C152.149 649.11 313.48 577.456 508 577.456Z"/><path fill="none" stroke="#45413c" stroke-linecap="round" stroke-linejoin="round" stroke-width="8" d="M112.365 707.576c0 155.325 329.697 252.404 593.452 174.742 122.41-36.045 197.818-102.657 197.818-174.742 0-155.325-329.697-252.404-593.452-174.741-122.41 36.042-197.818 102.654-197.818 174.741Z"/><path fill="#45413c" d="M255.234 972.87c0 25.38 210.638 41.242 379.15 28.553 78.205-5.89 126.382-16.773 126.382-28.552 0-25.381-210.638-41.243-379.15-28.554-78.205 5.89-126.382 16.775-126.382 28.554Z" opacity=".15"/><path fill="none" stroke="#45413c" stroke-linecap="round" stroke-linejoin="round" stroke-width="8" d="M420.082 238.75a60.222 60.222 0 0 1-19.782-49.454c0-35.389 39.562-69.237 39.562-108.801a125.296 125.296 0 0 0-19.78-59.345M508 238.75a60.228 60.228 0 0 1-19.782-49.454c0-35.389 39.564-69.237 39.564-108.801A125.298 125.298 0 0 0 508 21.15m89.019 217.6a60.228 60.228 0 0 1-19.783-49.454c0-35.389 40.663-69.237 40.663-108.801a125.298 125.298 0 0 0-19.782-59.345"/><path fill="#e0e0e0" stroke="#45413c" stroke-linecap="round" stroke-linejoin="round" stroke-width="8" d="M648.67 728.895c0 24.617-63.081 43.96-140.67 43.96s-140.67-20.001-140.67-43.96v-34.508h281.34Z"/><path fill="#f0f0f0" d="M826.707 388.87c0 109.9-27.695 271.01-191.224 318.706A500.963 500.963 0 0 1 508 722.082a500.963 500.963 0 0 1-127.483-14.506C216.99 659.88 189.296 498.77 189.296 388.87Z"/><path fill="#fff" d="M508 577.456a1248.004 1248.004 0 0 0 298.704-43.959 489.018 489.018 0 0 0 20-145.065h-637.41a489.089 489.089 0 0 0 20.002 145.065A1248.004 1248.004 0 0 0 508 577.457Z"/><path fill="none" stroke="#45413c" stroke-linecap="round" stroke-linejoin="round" stroke-width="8" d="M826.707 388.87c0 109.9-27.695 271.01-191.224 318.706A500.963 500.963 0 0 1 508 722.082a500.963 500.963 0 0 1-127.483-14.506C216.99 659.88 189.296 498.77 189.296 388.87Z"/><path fill="#e0e0e0" d="M189.293 388.87c0 84.6 265.59 137.475 478.06 95.176 98.607-19.632 159.354-55.912 159.354-95.176 0-84.6-265.59-137.476-478.06-95.174-98.607 19.63-159.354 55.912-159.354 95.174Z"/><path fill="#f0f0f0" d="M508 322.931c153.858 0 282.878 37.586 312.331 87.918a43.947 43.947 0 0 0 6.373-21.98c0-60.883-142.646-109.897-318.704-109.897S189.293 327.986 189.293 388.87a43.971 43.971 0 0 0 6.376 21.98c29.453-50.334 158.473-87.92 312.331-87.92Z"/><path fill="none" stroke="#45413c" stroke-linecap="round" stroke-linejoin="round" stroke-width="8" d="M189.293 388.87c0 84.6 265.59 137.475 478.06 95.176 98.607-19.632 159.354-55.912 159.354-95.176 0-84.6-265.59-137.476-478.06-95.174-98.607 19.63-159.354 55.912-159.354 95.174Z"/><path fill="#9ceb60" d="M209.736 427.334c0 54.99 248.554 89.36 447.396 61.864 92.284-12.76 149.132-36.344 149.132-61.864 0-54.99-248.554-89.357-447.396-61.864-92.284 12.761-149.132 36.343-149.132 61.864Z"/><path fill="#c8ffa1" d="M508 410.85a647.131 647.131 0 0 1 254.525 43.958 172.23 172.23 0 0 0 43.959-27.474c-45.278-41.76-161.55-71.433-298.264-71.433s-252.986 29.673-298.266 71.433a172.241 172.241 0 0 0 43.961 27.474A647.103 647.103 0 0 1 508 410.85Z"/><path fill="none" stroke="#45413c" stroke-linecap="round" stroke-linejoin="round" stroke-width="8" d="M209.736 427.334c0 54.99 248.554 89.36 447.396 61.864 92.284-12.76 149.132-36.344 149.132-61.864 0-54.99-248.554-89.357-447.396-61.864-92.284 12.761-149.132 36.343-149.132 61.864Z"/></svg>