<svg xmlns="http://www.w3.org/2000/svg" width="121" height="121" fill="none"><path fill="#FA823B" d="M79.932.71c2.284 0 3.426 0 4.49.3.606.171 1.19.413 1.738.72.966.541 1.774 1.35 3.389 2.964l27.18 27.181c1.616 1.615 2.423 2.423 2.963 3.389a7.98 7.98 0 0 1 .72 1.737c.273.966.297 1.996.299 3.885v39.651c-.002 1.89-.026 2.92-.299 3.886a7.985 7.985 0 0 1-.72 1.737c-.54.966-1.347 1.774-2.963 3.389l-27.18 27.18c-1.615 1.616-2.423 2.423-3.389 2.963a7.983 7.983 0 0 1-1.737.72c-.966.273-1.996.297-3.885.299H40.886c-1.889-.002-2.919-.026-3.885-.299a7.98 7.98 0 0 1-1.737-.72c-.966-.54-1.774-1.347-3.389-2.963l-27.18-27.18C3.078 87.934 2.27 87.126 1.73 86.16a8.003 8.003 0 0 1-.72-1.737c-.3-1.065-.3-2.207-.3-4.491v-38.44c0-2.284 0-3.426.3-4.491a8.02 8.02 0 0 1 .72-1.737c.541-.966 1.35-1.774 2.964-3.389l27.181-27.18c1.615-1.616 2.423-2.424 3.389-2.965A8.002 8.002 0 0 1 37 1.01c1.065-.3 2.207-.3 4.491-.3h38.44Z" style="fill:#fa823b;fill:color(display-p3 .98 .51 .23);fill-opacity:1"/></svg>